<svg width="1440" height="175" viewBox="0 0 1440 175" fill="none" xmlns="http://www.w3.org/2000/svg">
<path fill-rule="evenodd" clip-rule="evenodd" d="M0 0L21.6 16.2037C43.2 32.4074 87.6 64.8148 130.8 77.7778C174 90.7407 218.4 84.2593 261.6 77.7778C306 71.2963 349.2 64.8148 392.4 55.0926C436.8 45.3704 480 32.4074 523.2 48.6111C567.6 64.8148 610.8 110.185 654 123.148C698.4 136.111 741.6 116.667 786 97.2222C829.2 77.7778 872.4 58.3333 916.8 71.2963C960 84.2593 1003.2 129.63 1047.6 132.87C1090.8 136.111 1134 97.2222 1178.4 81.0185C1221.6 64.8148 1266 71.2963 1309.2 77.7778C1352.4 84.2593 1396.8 90.7407 1418.4 93.9815L1440 97.2222V175H1418.4C1396.8 175 1352.4 175 1309.2 175C1266 175 1221.6 175 1178.4 175C1134 175 1090.8 175 1047.6 175C1003.2 175 960 175 916.8 175C872.4 175 829.2 175 786 175C741.6 175 698.4 175 654 175C610.8 175 567.6 175 523.2 175C480 175 436.8 175 392.4 175C349.2 175 306 175 261.6 175C218.4 175 174 175 130.8 175C87.6 175 43.2 175 21.6 175H0V0Z" fill="#485665"/>
</svg>
