<svg width="1439" height="95" viewBox="0 0 1439 95" fill="none" xmlns="http://www.w3.org/2000/svg">
<path fill-rule="evenodd" clip-rule="evenodd" d="M1439 0L1417.4 8.7963C1395.8 17.5926 1351.4 35.1852 1308.2 42.2222C1265 49.2593 1220.6 45.7407 1177.4 42.2222C1133 38.7037 1089.8 35.1852 1046.6 29.9074C1002.2 24.6296 959 17.5926 915.8 26.3889C871.4 35.1852 828.2 59.8148 785 66.8519C740.6 73.8889 697.4 63.3333 653 52.7778C609.8 42.2222 566.6 31.6667 522.2 38.7037C479 45.7407 435.8 70.3704 391.4 72.1296C348.2 73.8889 305 52.7778 260.6 43.9815C217.4 35.1852 173 38.7037 129.8 42.2222C86.5999 45.7407 42.1999 49.2593 20.5999 51.0185L-1.00006 52.7778V95H20.5999C42.1999 95 86.5999 95 129.8 95C173 95 217.4 95 260.6 95C305 95 348.2 95 391.4 95C435.8 95 479 95 522.2 95C566.6 95 609.8 95 653 95C697.4 95 740.6 95 785 95C828.2 95 871.4 95 915.8 95C959 95 1002.2 95 1046.6 95C1089.8 95 1133 95 1177.4 95C1220.6 95 1265 95 1308.2 95C1351.4 95 1395.8 95 1417.4 95H1439V0Z" fill="#485665"/>
</svg>
