<svg width="1440" height="228" viewBox="0 0 1440 228" fill="none" xmlns="http://www.w3.org/2000/svg">
<path fill-rule="evenodd" clip-rule="evenodd" d="M1456.6 227.198L1435 210.154C1413.4 193.11 1369 159.023 1325.8 145.388C1282.6 131.753 1238.2 138.57 1195 145.388C1150.6 152.205 1107.4 159.023 1064.2 169.249C1019.8 179.475 976.6 193.11 933.4 176.067C889 159.023 845.8 111.3 802.6 97.6655C758.2 84.0305 715 104.483 670.6 124.935C627.4 145.388 584.2 165.84 539.8 152.205C496.6 138.57 453.4 90.8479 409 87.4392C365.8 84.0305 322.6 124.935 278.2 141.979C235 159.023 190.6 152.205 147.4 145.388C104.2 138.57 59.7999 131.753 38.2 128.344L-24.5 97.6655L-12 43.1255H38.2C59.7999 43.1255 104.2 43.1255 147.4 43.1255C190.6 43.1255 235 43.1255 278.2 43.1255C322.6 43.1255 365.8 43.1255 409 43.1255C453.4 43.1255 496.6 43.1255 539.8 43.1255C584.2 43.1255 627.4 43.1255 670.6 43.1255C715 43.1255 758.2 43.1255 802.6 43.1255C845.8 43.1255 889 43.1255 933.4 43.1255C976.6 43.1255 1019.8 43.1255 1064.2 43.1255C1107.4 43.1255 1150.6 43.1255 1195 43.1255C1210.1 69.4216 1311.4 0 1354.6 0C1377.4 44.3137 1435 22.6146 1456.6 22.6146V77.8363V227.198Z" fill="#485665"/>
</svg>
